<?xml version="1.0" encoding="UTF-8"?>
<svg width="500px" height="120px" viewBox="0 0 500 120" version="1.1" xmlns="http://www.w3.org/2000/svg" xmlns:xlink="http://www.w3.org/1999/xlink">
    <defs>
        <!-- Define a subtle glow filter for the text -->
        <filter id="glow">
            <feGaussianBlur stdDeviation="1" result="coloredBlur"/>
            <feMerge>
                <feMergeNode in="coloredBlur"/>
                <feMergeNode in="SourceGraphic"/>
            </feMerge>
        </filter>
    </defs>

    <!-- Logo scaled down and positioned on the left -->
    <g id="logo" transform="translate(10, 10) scale(0.08)">
        <path d="M396,41.5 C423.157,54.9383 432.99,76.438 425.5,106 C421.427,115.903 415.26,124.236 407,131 C403.423,133.276 400.09,135.776 397,138.5 C403.407,155.048 408.574,171.881 412.5,189 C410.334,187.769 408.167,186.769 406,186 C392.916,184.349 379.249,185.182 365,188.5 C361.098,189.149 358.098,190.315 356,192 C325.872,201.397 298.205,215.564 273,234.5 C267.405,239.116 327.102,210.62 366,199.5 C379.535,195.873 393.201,195.207 407,197.5 C416.484,200.649 421.984,207.149 423.5,217 C423.924,223.224 423.424,229.391 422,235.5 C422.066,239.868 423.399,243.702 426,247 C430.129,255.637 435.296,263.637 441.5,271 C445.304,276.717 444.804,281.884009 440,286.5 C436.026,289.102 431.693,290.602 427,291 C428.355,312.124 427.188,333.124 423.5,354 C420.183,359.641 415.349,363.474 409,365.5 C397.828,368.146 386.495,369.48 375,369.5 L373.5,371 L373.5,371 L372.5,402 L372.5,402 C371.728,411.668 376.135,416.706 380.5,408 C382.001,402.315 383.501,396.649 385,391 C449.436,403.942 512.769,420.942 575,442 C583.556,431.878 593.556,430.378 605,437.5 C619.202,450.074 629.035,465.574 634.5,484 C632.582,466.407 626.082,450.74 615,437 C611.311,434.471 608.478,431.138 606.5,427 C605.853,402.176 603.52,377.51 599.5,353 C593.751,320.087 586.918,287.42 579,255 C575.155,236.426 578.322,219.092 588.5,203 C600.587,185.49 614.087,169.157 629,154 C660.633,123.873 692.133,92.873 723.5,61 C724.192,60.063 724.025,59.397 723,59 C729.677,53.1011 735.177,54.1011 739.5,62 C740.167,64.667 740.167,67.333 739.5,70 C735.895,76.6 731.895,82.934 727.5,89 C708.538,110.964 689.204,132.631 669.5,154 C662.102,162.127 656.769,171.46 653.5,182 L652.5,199 L652.5,199 C651.037,202.923 649.87,206.923 649,211 C653.948,211.233 657.115,208.899 658.5,204 C657.718,189.443 661.718,176.443 670.5,165 C688.607,177.763 703.107,193.597 714,212.5 C712.695,219.633 708.362,223.466 701,224 C698.811,223.906 696.811,223.239 695,222 C683.219,241.269 666.385,253.936 644.5,260 C649.198,279.935 655.032,299.601 662,319 C661.50487,318.91223 671.203361,349.861406 681.198266,380.259292 L682.093861,382.979177 C686.722476,397.015619 691.3513,410.73218 695,421 C703.17,442.506 708.17,464.839 710,488 C710.742,513.207 699.742,530.874 677,541 C654.885,548.787 632.052,552.12 608.5,551 C572.202,550.017 525.036,553.284147 489,548.934147 C489,548.804147 488.94303,547.733372 488.839225,545.961444 L488.822276,545.677009 L488.803123,546.426884 C488.623486,553.387261 488.499652,560.308174 489,567 C488.159,588.412 486.326,609.745 483.5,631 C476.509,669.948 469.842,708.948 463.5,748 C460.363,769.41 457.863,790.743 456,812 C454.16,821.247 452.993,832.58 452.5,846 C451.678,853.512 451.845,860.845 453,868 C453.318,872.532 452.985,876.866 452,881 C452.165,877.982 451.998,874.982 451.5,872 C451.003,874.646 450.836,877.313 451,880 C370.454,880.659 290.12,879.993 210,878 C210.057,876.891 210.39,875.891 211,875 C224.515,854.305 235.682,832.305 244.5,809 C250.077,794.123 252.41,778.79 251.5,763 C249.449,754.232 245.782,746.232 240.5,739 C237.4116,735.9116 234.332,732.832 231.261072,729.761072 L222.074176,720.574176 C220.54732,719.04732 219.0226,717.5226 217.5,716 C217.693,700.523 216.359,685.19 213.5,670 C207.994,644.476 201.161,619.309 193,594.5 C202.196,584.304 211.029,573.804 219.5,563 C225.225,555.211 229.558,546.878 232.5,538 C229.55,542.618 226.216,546.952 222.5,551 C194.389,580.105 167.389,610.105 141.5,641 C126.704,634.334 111.204,632.167 95,634.5 C108.001,636.584 120.668,639.917 133,644.5 C158.702,675.869 187.369,704.203 219,729.5 C228.637,737.966 236.471,747.8 242.5,759 C243.973,763.557 244.806,768.223 245,773 C239.745,805.838 227.578,835.838 208.5,863 C195.341,875.266 180.508,877.933 164,871 C154.227,867.157 144.227,862.324 134,856.5 C129.421,853.798 125.588,850.298 122.5,846 C120.604,835.414 124.937,830.414 135.5,831 C136.855333,831.022049 142.719618,831.308425 148.794706,831.575805 L149.755056,831.617824 C156.320852,831.903308 162.868704,832.149321 164,832 L164,829 L164,829 C154.544,826.727 144.878,824.227 135,821.5 C132.293,819.636 131.459,817.136 132.5,814 C134.815,809.683 138.315,806.85 143,805.5 C150.63,804.475 158.297,803.641 166,803 C169.899,795.1 175.566,788.767 183,784 C141.462,762.077 102.129,736.91 65,708.5 C55.5,700.333 46.6667,691.5 38.5,682 C30.7641,671.055 28.4308,659.055 31.5,646 C39.3998,621.303 49.0665,597.303 60.5,574 C75.2914,542.917 91.291,512.583 108.5,483 C121.709,464.124 137.876,448.29 157,435.5 C178.051,423.974 199.384,412.974 221,402.5 C232.342,396.159 242.175,387.992 250.5,378 C261.424,362.724 265.757,345.724 263.5,327 C262.441,323.882 261.108,320.882 259.5,318 C252.838,310.017 247.172,301.35 242.5,292 C240.401,286.174 239.068,280.174 238.5,274 C232.511,260.369 227.511,246.369 223.5,232 C221.694,227.122 221.027,222.122 221.5,217 C243.747,189.126 252.079834,181.955501 285.499834,169.495501 C246.920834,175.072501 235.588,180.577 212.5,212 C190.099,222.904 168.932,220.737 149,205.5 C133.85,190.433 129.35,172.6 135.5,152 C148.03,123.001 170.196,108.001 202,107 C201.781,95.157 205.614,84.823 213.5,76 C241.413,49.0583 274.58,38.8916 313,45.5 C318.058,46.8627 322.724,49.0293 327,52 C348.015,36.3539 371.015,32.8539 396,41.5 Z M434.5,683 C436.49,673.491 432.657,669.158 423,670 C416.011,675.112 415.344,680.945 421,687.5 C426.96,690.368 431.46,688.868 434.5,683 Z M430,566 C425.974,568.044 423.974,571.377 424,576 C426.636,587.035 432.136,588.701 440.5,581 C443.849,571.184 440.349,566.184 430,566 Z M486.179276,508.498009 L486.21197,508.872583 C486.404514,511.120727 486.593788,513.44538 486.777431,515.790699 L486.91407,517.552691 C487.772294,528.725465 488.490126,540.049548 488.814443,545.5402 L488.822276,545.677009 L488.848866,544.686077 C488.987609,539.461849 489.131098,534.224311 489.03955,529.05346 L489,527.332423 C489.000543,525.064008 487.609038,517.295572 486.212391,508.700789 L486.179276,508.498009 Z M483.5,488 C483.796043,492.705277 484.672176,498.962266 485.640597,505.127143 L485.802772,506.153488 C485.911346,506.836774 486.020725,507.517795 486.13024,508.194296 L486.179276,508.498009 L486.139617,508.033225 C485.24549,497.72806 484.28773,489.20879 483.5,488 Z M431.5,481 C434.033,471.057 430.2,466.39 420,467 C418.366,468.472 416.866,470.138 415.5,472 C413.966,477.34 415.133,481.84 419,485.5 C424.437,487.155 428.603,485.655 431.5,481 Z M276,394.5 C275.063,393.808 274.397,393.975 274,395 C279.996,401.469 286.329,407.635 293,413.5 C298.827,418.25 305.16,422.25 312,425.5 C323.853,431.342 336.186,433.009 349,430.5 C347.622,428.787 345.955,427.453 344,426.5 C318.716,421.189 296.05,410.523 276,394.5 Z" stroke="#000000" stroke-width="15" fill="none"></path>
        <path d="M695,136 C699.513,136.088 703.513,137.588 707,140.5 C721.38,154.111 733.213,169.611 742.5,187 C743.549,197.921 738.883,204.921 728.5,208 C725.267,207.8 722.433,206.633 720,204.5 C709.723,195.229 700.557,185.062 692.5,174 C687.759,168.588 682.426,163.921 676.5,160 C676.898,157.869 677.898,155.869 679.5,154 C684.899,148.108 690.066,142.108 695,136 Z" stroke="#000000" stroke-width="15" fill="none"></path>
        <path d="M739,230 C740.699,229.84 742.366,230.006 744,230.5 C748.117,233.65 751.951,237.15 755.5,241 C756.816,244.628 755.649,246.961 752,248 C746.522,244.835 741.688,240.835 737.5,236 C736.752,233.66 737.252,231.66 739,230 Z" stroke="#000000" stroke-width="15" fill="none"></path>
        <path d="M706,263 C707.373,262.843 708.707,263.01 710,263.5 C713.971,268.28 717.304,273.447 720,279 C719.014,282.647 716.681,283.814 713,282.5 C708.968,278.101 705.968,273.101 704,267.5 C704.019,265.667 704.685,264.167 706,263 Z" stroke="#000000" stroke-width="15" fill="none"></path>
        <path d="M780,287 C805.83,287.832 831.83,288.332 858,288.5 C861.833,289.667 864.333,292.167 865.5,296 C865.899,295.772 866.065,295.438 866,295 C866.838,295.342 867.172,296.008 867,297 C866.168,316.162 865.668,335.496 865.5,355 C865.098,356.372 864.598,357.705 864,359 C864.124,359.607 861.047,363.984 858,364.5 C843.667,364.833 829.333,365.167 815,365.5 C808.084,372.844 800.584,379.344 792.5,385 C790.789,385.061 789.456,384.394 788.5,383 C788.001,377.009 787.834,371.009 788,365 C779.296,366.491 773.629,363.158 771,355 C771.832,335.838 772.332,316.504 772.5,297 C773.106,293.952 774.606,291.452 777,289.5 C776.772,289.101 778.347,287.16 780,287 Z" stroke="#000000" stroke-width="15" fill="none"></path>
        <path d="M728,327 C734.751,326.88 736.751,329.714 734,335.5 C726.249,336.591 724.249,333.758 728,327 Z" stroke="#000000" stroke-width="15" fill="none"></path>
        <path d="M803,420 C814.465,419.15 823.299,423.483 829.5,433 C842.535,416.867 856.535,415.867 871.5,430 C877.449,440.306 877.449,450.639 871.5,461 C860.072,475.763 847.239,489.263 833,501.5 C831,502.167 829,502.167 827,501.5 C815.863,491.363 805.029,480.863 794.5,470 C787.958,462.916 784.125,454.582 783,445 C783.818,431.861 790.484,423.528 803,420 Z" stroke="#000000" stroke-width="15" fill="none"></path>
        <path d="M791,649 C791.832,629.504 792.332,609.838 792.5,590 C793.333,589.167 794.167,588.333 795,587.5 C800.667,586.833 806.333,586.833 812,587.5 C813.393,588.671 814.227,590.171 814.5,592 C815.19,593.238 815.69,593.238 816,592 C827.165,581.651 836.331,569.651 843.5,556 C845.959,548.038 848.293,540.038 850.5,532 C854.987,529.364 859.487,529.531 864,532.5 C871.881,541.742 874.048,552.242 870.5,564 C869.164,569.509 867.33,574.843 865,580 C875.985,580.832 886.985,581.332 898,581.5 C906.939,583.44 910.773,588.94 909.5,598 C908.727,600.711 907.56,603.211 906,605.5 C909.668,613.536 908.335,620.536 902,626.5 C905.179,632.602 904.012,637.768 898.5,642 C900.075,649.69 897.241,654.857 890,657.5 C871,658.167 852,658.167 833,657.5 C826.147,656.408 820.48,653.241 816,648 C813.387,653.39 809.054,655.39 803,654 C800.333,653.833 797.667,653.667 795,653.5 C792.856,652.708 791.523,651.208 791,649 Z" stroke="#000000" stroke-width="15" fill="none"></path>
    </g>

    <!-- Text on the right side -->
    <g id="text" transform="translate(100, 30)">
        <!-- "Powered by" in smaller text -->
        <text x="0" y="25" font-family="Inter, -apple-system, BlinkMacSystemFont, 'Segoe UI', sans-serif" font-size="16" font-weight="300" fill="#000000" letter-spacing="0.5">
            POWERED BY
        </text>

        <!-- "Social Chef" in larger, bold text -->
        <text x="0" y="60" font-family="Playfair Display, Georgia, serif" font-size="32" font-weight="700" fill="#000000" letter-spacing="1">
            Social Chef
        </text>
    </g>
</svg>
