<?xml version="1.0" encoding="UTF-8"?>
<svg width="899px" height="857px" viewBox="0 0 899 857" version="1.1" xmlns="http://www.w3.org/2000/svg" xmlns:xlink="http://www.w3.org/1999/xlink">
    <title>Slice</title>
    <defs>
        <linearGradient x1="24.1278824%" y1="55.9878733%" x2="85.5863415%" y2="55.9878733%" id="linearGradient-1">
            <stop stop-color="#D1AE4D" offset="0%"></stop>
            <stop stop-color="#DBB141" offset="100%"></stop>
        </linearGradient>
        <linearGradient x1="24.1278824%" y1="55.9878733%" x2="85.5863415%" y2="55.9878733%" id="linearGradient-2">
            <stop stop-color="#D1AE4D" offset="0%"></stop>
            <stop stop-color="#DBB141" offset="100%"></stop>
        </linearGradient>
        <linearGradient x1="24.1278824%" y1="55.9878733%" x2="85.5863415%" y2="55.9878733%" id="linearGradient-3">
            <stop stop-color="#D1AE4D" offset="0%"></stop>
            <stop stop-color="#DBB141" offset="100%"></stop>
        </linearGradient>
        <linearGradient x1="24.1278824%" y1="55.9878733%" x2="85.5863415%" y2="55.9878733%" id="linearGradient-4">
            <stop stop-color="#D1AE4D" offset="0%"></stop>
            <stop stop-color="#DBB141" offset="100%"></stop>
        </linearGradient>
        <linearGradient x1="24.1278824%" y1="55.9878733%" x2="85.5863415%" y2="55.9878733%" id="linearGradient-5">
            <stop stop-color="#D1AE4D" offset="0%"></stop>
            <stop stop-color="#DBB141" offset="100%"></stop>
        </linearGradient>
        <linearGradient x1="24.1278824%" y1="55.9878733%" x2="85.5863415%" y2="55.9878733%" id="linearGradient-6">
            <stop stop-color="#D1AE4D" offset="0%"></stop>
            <stop stop-color="#DBB141" offset="100%"></stop>
        </linearGradient>
        <linearGradient x1="24.1278824%" y1="55.9878733%" x2="85.5863415%" y2="55.9878733%" id="linearGradient-7">
            <stop stop-color="#D1AE4D" offset="0%"></stop>
            <stop stop-color="#DBB141" offset="100%"></stop>
        </linearGradient>
        <linearGradient x1="24.1278824%" y1="55.9878733%" x2="85.5863415%" y2="55.9878733%" id="linearGradient-8">
            <stop stop-color="#D1AE4D" offset="0%"></stop>
            <stop stop-color="#DBB141" offset="100%"></stop>
        </linearGradient>
        <linearGradient x1="24.1278824%" y1="55.9878733%" x2="85.5863415%" y2="55.9878733%" id="linearGradient-9">
            <stop stop-color="#D1AE4D" offset="0%"></stop>
            <stop stop-color="#DBB141" offset="100%"></stop>
        </linearGradient>
        <linearGradient x1="24.1278824%" y1="55.9878733%" x2="85.5863415%" y2="55.9878733%" id="linearGradient-10">
            <stop stop-color="#D1AE4D" offset="0%"></stop>
            <stop stop-color="#DBB141" offset="100%"></stop>
        </linearGradient>
        <linearGradient x1="24.1278824%" y1="55.9878733%" x2="85.5863415%" y2="55.9878733%" id="linearGradient-11">
            <stop stop-color="#D1AE4D" offset="0%"></stop>
            <stop stop-color="#DBB141" offset="100%"></stop>
        </linearGradient>
        <linearGradient x1="24.1278824%" y1="55.9878733%" x2="85.5863415%" y2="55.9878733%" id="linearGradient-12">
            <stop stop-color="#D1AE4D" offset="0%"></stop>
            <stop stop-color="#DBB141" offset="100%"></stop>
        </linearGradient>
        <linearGradient x1="24.1278824%" y1="55.9878733%" x2="85.5863415%" y2="55.9878733%" id="linearGradient-13">
            <stop stop-color="#D1AE4D" offset="0%"></stop>
            <stop stop-color="#DBB141" offset="100%"></stop>
        </linearGradient>
        <linearGradient x1="24.1278824%" y1="55.9878733%" x2="85.5863415%" y2="55.9878733%" id="linearGradient-14">
            <stop stop-color="#D1AE4D" offset="0%"></stop>
            <stop stop-color="#DBB141" offset="100%"></stop>
        </linearGradient>
        <linearGradient x1="24.1278824%" y1="55.9878733%" x2="85.5863415%" y2="55.9878733%" id="linearGradient-15">
            <stop stop-color="#D1AE4D" offset="0%"></stop>
            <stop stop-color="#DBB141" offset="100%"></stop>
        </linearGradient>
        <linearGradient x1="24.1278824%" y1="55.9878733%" x2="85.5863415%" y2="55.9878733%" id="linearGradient-16">
            <stop stop-color="#D1AE4D" offset="0%"></stop>
            <stop stop-color="#DBB141" offset="100%"></stop>
        </linearGradient>
    </defs>
    <g id="Page-1" stroke="none" stroke-width="1" fill="none" fill-rule="evenodd">
        <path d="M376,17.5 C403.157,30.9383 412.99,52.438 405.5,82 C401.427,91.903 395.26,100.236 387,107 C383.423,109.276 380.09,111.776 377,114.5 C383.407,131.048 388.574,147.881 392.5,165 C390.334,163.769 388.167,162.769 386,162 C372.916,160.349 359.249,161.182 345,164.5 C341.098,165.149 338.098,166.315 336,168 C305.872,177.397 278.205,191.564 253,210.5 C247.405,215.116 242.071,219.95 237,225 C270.769,203.12 307.102,186.62 346,175.5 C359.535,171.873 373.201,171.207 387,173.5 C396.484,176.649 401.984,183.149 403.5,193 C403.924,199.224 403.424,205.391 402,211.5 C402.066,215.868 403.399,219.702 406,223 C410.129,231.637 415.296,239.637 421.5,247 C425.304,252.717 424.804,257.884009 420,262.5 C416.026,265.102 411.693,266.602 407,267 C408.355,288.124 407.188,309.124 403.5,330 C400.183,335.641 395.349,339.474 389,341.5 C377.828,344.146 366.495,345.48 355,345.5 L353.5,347 L352.5,378 C351.728,387.668 347.895,395.835 341,402.5 C349.635,398.872 356.135,392.706 360.5,384 C362.001,378.315 363.501,372.649 365,367 C429.436,379.942 492.769,396.942 555,418 C563.556,407.878 573.556,406.378 585,413.5 C599.202,426.074 609.035,441.574 614.5,460 C612.582,442.407 606.082,426.74 595,413 C591.311,410.471 588.478,407.138 586.5,403 C585.853,378.176 583.52,353.51 579.5,329 C573.751,296.087 566.918,263.42 559,231 C555.155,212.426 558.322,195.092 568.5,179 C580.587,161.49 594.087,145.157 609,130 C640.633,99.873 672.133,68.873 703.5,37 C704.192,36.063 704.025,35.397 703,35 C709.677,29.1011 715.177,30.1011 719.5,38 C720.167,40.667 720.167,43.333 719.5,46 C715.895,52.6 711.895,58.934 707.5,65 C688.538,86.964 669.204,108.631 649.5,130 C642.102,138.127 636.769,147.46 633.5,158 L632.5,175 C631.037,178.923 629.87,182.923 629,187 C633.948,187.233 637.115,184.899 638.5,180 C637.718,165.443 641.718,152.443 650.5,141 C668.607,153.763 683.107,169.597 694,188.5 C692.695,195.633 688.362,199.466 681,200 C678.811,199.906 676.811,199.239 675,198 C663.219,217.269 646.385,229.936 624.5,236 C629.198,255.935 635.032,275.601 642,295 C641.261,294.869 640.594,295.036 640,295.5 C651.564,330.045 663.23,363.878 675,397 C683.17,418.506 688.17,440.839 690,464 C690.742,489.207 679.742,506.874 657,517 C634.885,524.787 612.052,528.12 588.5,527 C552.202,526.017 516.036,523.35 480,519 L480,516 C480.643,502.626 479.143,489.293 475.5,476 C474.326,471.497 472.826,467.83 471,465 C469.462,461.601 467.629,458.267 465.5,455 C465.806938,459.878441 466.10678,467.949168 466.356706,476.169622 L466.416491,478.170523 C466.423019,478.392813 466.429509,478.615032 466.435958,478.83712 L466.471596,480.077043 L466.500114,481.087867 C466.509522,481.424102 466.51883,481.759559 466.528036,482.094025 L466.555344,483.094241 C466.8163,492.730148 466.988706,501.353966 466.999466,503.772189 L467,504 L467,504 C467.375,517.174 468.041,530.174 469,543 C468.159,564.412 466.326,585.745 463.5,607 C456.509,645.948 449.842,684.948 443.5,724 C440.363,745.41 437.863,766.743 436,788 C434.16,797.247 432.993,808.58 432.5,822 C431.678,829.512 431.845,836.845 433,844 C433.318,848.532 432.985,852.866 432,857 C432.165,853.982 431.998,850.982 431.5,848 C431.003,850.646 430.836,853.313 431,856 C350.454,856.659 270.12,855.993 190,854 C190.057,852.891 190.39,851.891 191,851 C204.515,830.305 215.682,808.305 224.5,785 C230.077,770.123 232.41,754.79 231.5,739 C229.449,730.232 225.782,722.232 220.5,715 L214.334895,708.834895 C213.309321,707.809321 212.284715,706.784715 211.261072,705.761072 L202.074176,696.574176 C200.54732,695.04732 199.0226,693.5226 197.5,692 C197.693,676.523 196.359,661.19 193.5,646 C187.994,620.476 181.161,595.309 173,570.5 C182.196,560.304 191.029,549.804 199.5,539 C205.225,531.211 209.558,522.878 212.5,514 C209.55,518.618 206.216,522.952 202.5,527 C174.389,556.105 147.389,586.105 121.5,617 C106.704,610.334 91.204,608.167 75,610.5 C88.001,612.584 100.668,615.917 113,620.5 C138.702,651.869 167.369,680.203 199,705.5 C208.637,713.966 216.471,723.8 222.5,735 C223.973,739.557 224.806,744.223 225,749 C219.745,781.838 207.578,811.838 188.5,839 C175.341,851.266 160.508,853.933 144,847 C134.227,843.157 124.227,838.324 114,832.5 C109.421,829.798 105.588,826.298 102.5,822 C100.604,811.414 104.937,806.414 115.5,807 C116.855333,807.022049 122.719618,807.308425 128.794706,807.575805 L129.755056,807.617824 L130.133793,807.634248 L130.133793,807.634248 L131.267464,807.682842 C137.296163,807.938817 142.955726,808.137835 144,808 L144,805 C134.544,802.727 124.878,800.227 115,797.5 C112.293,795.636 111.459,793.136 112.5,790 C114.815,785.683 118.315,782.85 123,781.5 C130.63,780.475 138.297,779.641 146,779 C149.899,771.1 155.566,764.767 163,760 C121.462,738.077 82.129,712.91 45,684.5 C35.5,676.333 26.6667,667.5 18.5,658 C10.7641,647.055 8.4308,635.055 11.5,622 C19.3998,597.303 29.0665,573.303 40.5,550 C55.2914,518.917 71.291,488.583 88.5,459 C101.709,440.124 117.876,424.29 137,411.5 C158.051,399.974 179.384,388.974 201,378.5 C212.342,372.159 222.175,363.992 230.5,354 C241.424,338.724 245.757,321.724 243.5,303 C242.441,299.882 241.108,296.882 239.5,294 C232.838,286.017 227.172,277.35 222.5,268 C220.401,262.174 219.068,256.174 218.5,250 C212.511,236.369 207.511,222.369 203.5,208 C201.694,203.122 201.027,198.122 201.5,193 C223.747,165.126 251.58,144.96 285,132.5 C246.421,138.077 215.588,156.577 192.5,188 C170.099,198.904 148.932,196.737 129,181.5 C113.85,166.433 109.35,148.6 115.5,128 C128.03,99.001 150.196,84.001 182,83 C181.781,71.157 185.614,60.823 193.5,52 C221.413,25.0583 254.58,14.8916 293,21.5 C298.058,22.8627 302.724,25.0293 307,28 C328.015,12.3539 351.015,8.8539 376,17.5 Z M414.5,659 C416.49,649.491 412.657,645.158 403,646 C396.011,651.112 395.344,656.945 401,663.5 C406.96,666.368 411.46,664.868 414.5,659 Z M410,542 C405.974,544.044 403.974,547.377 404,552 C406.636,563.035 412.136,564.701 420.5,557 C423.849,547.184 420.349,542.184 410,542 Z M411.5,457 C414.033,447.057 410.2,442.39 400,443 C398.366,444.472 396.866,446.138 395.5,448 C393.966,453.34 395.133,457.84 399,461.5 C404.437,463.155 408.603,461.655 411.5,457 Z M254,371 C259.996,377.469 266.329,383.635 273,389.5 C278.827,394.25 285.16,398.25 292,401.5 C303.853,407.342 316.186,409.009 329,406.5 C327.622,404.787 325.955,403.453 324,402.5 C298.716,397.189 276.05,386.523 256,370.5 C255.063,369.808 254.397,369.975 254,371 Z" id="Combined-Shape" fill="url(#linearGradient-1)"></path>
        <path d="M675,112 C679.513,112.088 683.513,113.588 687,116.5 C701.38,130.111 713.213,145.611 722.5,163 C723.549,173.921 718.883,180.921 708.5,184 C705.267,183.8 702.433,182.633 700,180.5 C689.723,171.229 680.557,161.062 672.5,150 C667.759,144.588 662.426,139.921 656.5,136 C656.898,133.869 657.898,131.869 659.5,130 C664.899,124.108 670.066,118.108 675,112 Z" id="Path" fill="url(#linearGradient-2)"></path>
        <path d="M703,35 C704.025,35.397 704.192,36.063 703.5,37 C672.133,68.873 640.633,99.873 609,130 C640.333,98.333 671.667,66.667 703,35 Z" id="Path" fill="url(#linearGradient-3)"></path>
        <path d="M719,206 C720.699,205.84 722.366,206.006 724,206.5 C728.117,209.65 731.951,213.15 735.5,217 C736.816,220.628 735.649,222.961 732,224 C726.522,220.835 721.688,216.835 717.5,212 C716.752,209.66 717.252,207.66 719,206 Z" id="Path" fill="url(#linearGradient-4)"></path>
        <path d="M686,239 C687.373,238.843 688.707,239.01 690,239.5 C693.971,244.28 697.304,249.447 700,255 C699.014,258.647 696.681,259.814 693,258.5 C688.968,254.101 685.968,249.101 684,243.5 C684.019,241.667 684.685,240.167 686,239 Z" id="Path" fill="url(#linearGradient-5)"></path>
        <path d="M750,259 C776.335,258.833 802.669,259 829,259.5 C832.918,260.583 835.252,263.083 836,267 C836.065,267.438 835.899,267.772 835.5,268 C834.333,264.167 831.833,261.667 828,260.5 C801.83,260.332 775.83,259.832 750,259 Z" id="Path" fill="url(#linearGradient-6)"></path>
        <path d="M750,259 C775.83,259.832 801.83,260.332 828,260.5 C831.833,261.667 834.333,264.167 835.5,268 C835.899,267.772 836.065,267.438 836,267 C836.838,267.342 837.172,268.008 837,269 C836.168,288.162 835.668,307.496 835.5,327 C835.098,328.372 834.598,329.705 834,331 C834.124,331.607 834.457,331.94 835,332 C833.38,334.484 831.047,335.984 828,336.5 C813.667,336.833 799.333,337.167 785,337.5 C778.084,344.844 770.584,351.344 762.5,357 C760.789,357.061 759.456,356.394 758.5,355 C758.001,349.009 757.834,343.009 758,337 C749.296,338.491 743.629,335.158 741,327 C741.832,307.838 742.332,288.504 742.5,269 C743.106,265.952 744.606,263.452 747,261.5 C746.772,261.101 746.438,260.935 746,261 C747.014,259.826 748.347,259.16 750,259 Z" id="Path" fill="url(#linearGradient-7)"></path>
        <path d="M837,269 C837.167,289.003 837,309.003 836.5,329 C835.987,330.027 835.487,331.027 835,332 C834.457,331.94 834.124,331.607 834,331 C834.598,329.705 835.098,328.372 835.5,327 C835.668,307.496 836.168,288.162 837,269 Z" id="Path" fill="url(#linearGradient-8)"></path>
        <path d="M746,261 C746.438,260.935 746.772,261.101 747,261.5 C744.606,263.452 743.106,265.952 742.5,269 C742.332,288.504 741.832,307.838 741,327 C740.833,306.997 741,286.997 741.5,267 C742.292,264.394 743.792,262.394 746,261 Z" id="Path" fill="url(#linearGradient-9)"></path>
        <path d="M708,303 C714.751,302.88 716.751,305.714 714,311.5 C706.249,312.591 704.249,309.758 708,303 Z" id="Path" fill="url(#linearGradient-10)"></path>
        <path d="M642,295 C653.407,328.888 664.407,362.888 675,397 C663.23,363.878 651.564,330.045 640,295.5 C640.594,295.036 641.261,294.869 642,295 Z" id="Path" fill="url(#linearGradient-11)"></path>
        <path d="M783,396 C794.465,395.15 803.299,399.483 809.5,409 C822.535,392.867 836.535,391.867 851.5,406 C857.449,416.306 857.449,426.639 851.5,437 C840.072,451.763 827.239,465.263 813,477.5 C811,478.167 809,478.167 807,477.5 C795.863,467.363 785.029,456.863 774.5,446 C767.958,438.916 764.125,430.582 763,421 C763.818,407.861 770.484,399.528 783,396 Z" id="Path" fill="url(#linearGradient-12)"></path>
        <path d="M771,625 C771.832,605.504 772.332,585.838 772.5,566 C773.333,565.167 774.167,564.333 775,563.5 C780.667,562.833 786.333,562.833 792,563.5 C793.393,564.671 794.227,566.171 794.5,568 C795.19,569.238 795.69,569.238 796,568 C807.165,557.651 816.331,545.651 823.5,532 C825.959,524.038 828.293,516.038 830.5,508 C834.987,505.364 839.487,505.531 844,508.5 C851.881,517.742 854.048,528.242 850.5,540 C849.164,545.509 847.33,550.843 845,556 C855.985,556.832 866.985,557.332 878,557.5 C886.939,559.44 890.773,564.94 889.5,574 C888.727,576.711 887.56,579.211 886,581.5 C889.668,589.536 888.335,596.536 882,602.5 C885.179,608.602 884.012,613.768 878.5,618 C880.075,625.69 877.241,630.857 870,633.5 C851,634.167 832,634.167 813,633.5 C806.147,632.408 800.48,629.241 796,624 C793.387,629.39 789.054,631.39 783,630 C780.333,629.833 777.667,629.667 775,629.5 C772.856,628.708 771.523,627.208 771,625 Z" id="Path" fill="url(#linearGradient-13)"></path>
        <path d="M796,568 C795.69,569.238 795.19,569.238 794.5,568 C794.227,566.171 793.393,564.671 792,563.5 C786.333,562.833 780.667,562.833 775,563.5 C774.167,564.333 773.333,565.167 772.5,566 C772.332,585.838 771.832,605.504 771,625 C769.847,605.74 769.68,586.407 770.5,567 C773.263,561.787 777.597,559.787 783.5,561 C789.939,559.629 794.106,561.962 796,568 Z" id="Path" fill="url(#linearGradient-14)"></path>
        <path d="M436,788 C434.585,806.643 433.585,825.31 433,844 C431.845,836.845 431.678,829.512 432.5,822 C432.993,808.58 434.16,797.247 436,788 Z" id="Path" fill="url(#linearGradient-15)"></path>
        <path d="M432,857 C350.999,857.167 269.999,857 189,856.5 C189.752,855.829 190.086,854.996 190,854 C270.12,855.993 350.454,856.659 431,856 C430.836,853.313 431.003,850.646 431.5,848 C431.998,850.982 432.165,853.982 432,857 Z" id="Path" fill="url(#linearGradient-16)"></path>
    </g>
</svg>